<?xml version="1.0" encoding="UTF-8"?>
<svg width="100pt" height="100pt" version="1.1" viewBox="0 0 100 100" xmlns="http://www.w3.org/2000/svg">
 <path d="m50.223 5.9844c1.3398 0 2.668 0.16406 3.9492 0.49609 0.003906 0 0.003906 0 0.007813 0.003906 0.003906 0 0.007812 0.003906 0.011718 0.003906 0.22266 0.054688 0.41797 0.11328 0.59375 0.16797 0.21094 0.042969 0.41406 0.09375 0.59766 0.13672 0.007813 0.003906 0.011719 0.003906 0.019532 0.003906 9.1562 2.3867 15.98 13.465 10.598 24.98-4.0586 8.6758-13.137 14.312-19.957 19.328 2.1406 1.5469 3.4141 3.2266 3.9414 5.0469 0.71484 2.4688-0.007813 4.7188-0.6875 6.5586-0.67578 1.8398-1.2969 3.4023-1.2969 4.5312 0 1.1328 0.26953 2.0547 2.3633 3.5195 3.2773 2.2891 4.9961 4.7031 5.2383 7.2305 0.24219 2.5273-0.96875 4.6172-2.1992 6.3086-1.2344 1.6914-2.5898 3.1602-3.2852 4.3242-0.34766 0.58203-0.51563 1.0508-0.55078 1.3711-0.035156 0.32031-0.015625 0.51562 0.23828 0.91797 0.14453 0.22266 0.24609 0.47266 0.29297 0.73047 0.046875 0.26172 0.042969 0.53125-0.011718 0.78906-0.054688 0.25781-0.16406 0.50781-0.31641 0.72266-0.15234 0.21875-0.34766 0.40234-0.57031 0.54297-0.22266 0.14062-0.47656 0.23828-0.73828 0.28125-0.26172 0.042969-0.53125 0.035156-0.78906-0.023438-0.25781-0.058593-0.50391-0.17188-0.71875-0.32812s-0.39844-0.35547-0.53516-0.57812c-0.6875-1.0859-0.95703-2.3555-0.83594-3.4883 0.125-1.1367 0.57031-2.1133 1.0938-2.9883 1.0469-1.75 2.4609-3.2188 3.4844-4.625 1.0234-1.4023 1.5469-2.5664 1.4531-3.5703-0.097656-1.0039-0.78906-2.4062-3.5508-4.3359-2.8008-1.9609-4.0742-4.4766-4.0703-6.8008 0.003906-2.3242 0.92969-4.2383 1.543-5.9102 0.61328-1.668 0.91797-2.9531 0.59766-4.0625-0.25-0.86328-0.92578-1.9062-2.7266-3.125 0.24609 0.48438 0.47656 1.1172 0.48047 1.9805 0 0.71875-0.28125 1.5547-0.77734 2.1758-0.49609 0.62109-1.1367 1.0664-1.9023 1.457-0.23438 0.12109-0.49219 0.19531-0.75391 0.21875-0.26172 0.023438-0.52734-0.011718-0.78125-0.089843-0.25-0.082031-0.48438-0.21094-0.68359-0.38281s-0.36719-0.38281-0.48438-0.61719c-0.12109-0.23438-0.19141-0.49219-0.21094-0.75781-0.019531-0.26172 0.011719-0.52734 0.097656-0.77734 0.082031-0.25 0.21484-0.48437 0.39062-0.68359 0.17188-0.19922 0.38672-0.36328 0.62109-0.48047 0.16406-0.082031 0.28516-0.15625 0.37891-0.21875-0.074219-0.17969-0.19141-0.45703-0.37109-0.80859-0.36719-0.73047-0.98438-2.0625-0.39062-3.5469 0.21094-0.52344 0.51562-0.96875 0.90625-1.3594-3.3086-7.8086-8.6992-17.469-7.707-27.324 1.0938-10.824 9.7734-16.953 18.004-16.945z" fill-rule="evenodd"/>
</svg>
