<svg xmlns="http://www.w3.org/2000/svg" xmlns:xlink="http://www.w3.org/1999/xlink" version="1.1" x="0px" y="0px" viewBox="0 0 100 125" enable-background="new 0 0 100 100" xml:space="preserve"><g><g><path d="M83.293,55.864c0.339-6.079,0.466-11.847-3.289-17.478c-3.758-5.564-9.998-6.052-16.032-6.524    c-0.926-0.072-1.847-0.144-2.766-0.236c-1.272-0.098-2.486-0.195-3.686-0.294l0.002-0.041c-0.641-0.04-1.286-0.08-1.939-0.119    c-0.2-0.017-0.401-0.033-0.603-0.05c-0.114,0-0.236-0.002-0.364-0.004c-0.541-0.029-1.088-0.056-1.639-0.079    c-0.628-0.041-1.115-0.081-1.125-0.082l-0.003,0.04c-0.85-0.027-1.755-0.046-2.594-0.04c-0.243,0.02-0.492,0.035-0.744,0.051    c-1.883,0.115-4.226,0.257-5.056,2.595c-0.38,0.759-0.424,1.812-0.463,2.74c-0.018,0.425-0.036,0.826-0.095,1.157    c-0.087,1.818,0.132,3.587,0.343,5.299c0.209,1.689,0.406,3.285,0.325,4.886c-0.169,2.698-0.169,3.048,0,6.246l0.058,0.22    c0.001,0.001,0.001,0.003,0.001,0.004c-1.123,0.119-2.22,0.242-3.241,0.362c-0.788,0.088-1.589-0.026-2.438-0.147    c-0.648-0.092-1.318-0.188-1.958-0.188c-0.004,0-0.009,0-0.014,0c-2.371-0.169-4.894-0.169-7.058-0.002    c-0.657,0-1.433,0.04-2.232,0.081c-0.828,0.042-1.681,0.086-2.445,0.086h-3.349c-0.47-3.965-0.933-8.46-0.772-12.476    c0-0.742,0.087-1.502,0.171-2.236c0.084-0.735,0.163-1.428,0.163-2.109c0-0.199,0.02-0.564,0.045-1.026    c0.084-1.567,0.21-3.935-0.045-5.156c0-0.438-0.34-1.426-0.884-1.782c-0.04-0.041-0.078-0.079-0.115-0.116l-0.099-0.099    l-0.134-0.04c-0.271-0.081-0.528-0.131-0.769-0.15c-0.046-0.013-0.078-0.02-0.091-0.023l-0.004,0.017    c-0.547-0.026-1.015,0.115-1.399,0.418c-1.227,0.971-1.087,3.296-0.994,4.834c0.018,0.309,0.035,0.58,0.035,0.785l0.003,3.614    c-0.436,3.926-0.095,7.913,0.235,11.768c0.183,2.131,0.371,4.334,0.43,6.506c0,0.261-0.017,0.521-0.035,0.788    c-0.038,0.58-0.08,1.238,0.036,1.917c0.171,3.064,0.343,5.591,0.668,8.657c0,0.545,0.022,1.024,0.273,1.334    c0.441,0.705,1.097,1.093,1.818,1.093c0.148,0,0.298-0.016,0.449-0.049c0.993-0.217,1.798-1.12,1.905-2.101    c0.239-1.197,0.159-2.506,0.082-3.771c-0.036-0.581-0.071-1.151-0.074-1.741c-0.138-1.382-0.245-3.486-0.234-4.386    c2.056,0.045,4.17-0.044,6.211-0.132c2.633-0.114,5.353-0.231,8.005-0.049c0.702,0,1.323,0.096,1.923,0.189    c0.775,0.12,1.574,0.245,2.451,0.145c1.603-0.085,3.184-0.256,4.712-0.42c1.511-0.164,3.073-0.332,4.615-0.414    c1.403,0,2.826,0.21,4.332,0.433c1.978,0.293,4.022,0.597,6.058,0.401c1.157-0.064,2.297-0.202,3.399-0.336    c1.837-0.223,3.572-0.433,5.365-0.335c0.52,0.058,1.041,0.136,1.556,0.213c0.998,0.15,1.941,0.291,2.85,0.291    c1.325,0,2.973,0,4.274,0.163c0.103,0.013,0.801,0.099,1.371,0.144c-0.009,0.16-0.02,0.322-0.02,0.473v3.346    c-0.333,0.358-0.331,1.055-0.323,1.441c0.02,0.097,0.038,0.232,0.061,0.392c0.119,0.836,0.312,2.119,0.964,2.871    c0.27,0.468,0.716,0.814,1.267,0.944c0.713,0.168,1.457-0.048,1.953-0.547c0.87-0.726,1.015-1.853,1.155-2.943    c0.054-0.424,0.106-0.825,0.198-1.192c0.184-0.735,0.184-1.464,0.182-2.262C84.233,60.142,84.444,57.43,83.293,55.864z"/><path d="M24.771,47.722c0.657,1.675,1.656,2.885,2.927,3.52c1.045,0.436,2.222,0.652,3.427,0.652c1.466,0,2.972-0.321,4.324-0.955    c2.102-0.986,3.59-2.605,4.192-4.565c0.93-3.161,0.067-7.359-1.979-9.574c-0.993-0.994-2.377-1.627-4.07-1.834    c-0.109,0-0.231-0.003-0.36-0.008c-2.494-0.485-4.943-0.405-6.884,1.675c-1.189,1.188-1.586,2.388-2.046,3.777l-0.107,0.325    c-0.171,0.685-0.343,1.713-0.346,1.735c-0.172,1.211-0.35,2.463,0.024,3.588C23.987,46.393,24.321,47.3,24.771,47.722z"/></g></g></svg>